G04 #@! TF.GenerationSoftware,KiCad,Pcbnew,(5.1.8)-1*
G04 #@! TF.CreationDate,2023-02-07T01:20:16+09:00*
G04 #@! TF.ProjectId,DIP28SSOP32_1mm,44495032-3853-4534-9f50-33325f316d6d,rev?*
G04 #@! TF.SameCoordinates,PXa9a2ce8PY790b418*
G04 #@! TF.FileFunction,Copper,L1,Top*
G04 #@! TF.FilePolarity,Positive*
%FSLAX46Y46*%
G04 Gerber Fmt 4.6, Leading zero omitted, Abs format (unit mm)*
G04 Created by KiCad (PCBNEW (5.1.8)-1) date 2023-02-07 01:20:16*
%MOMM*%
%LPD*%
G01*
G04 APERTURE LIST*
G04 #@! TA.AperFunction,ComponentPad*
%ADD10R,1.700000X1.700000*%
G04 #@! TD*
G04 #@! TA.AperFunction,ComponentPad*
%ADD11O,1.600000X1.600000*%
G04 #@! TD*
G04 #@! TA.AperFunction,ComponentPad*
%ADD12R,1.600000X1.600000*%
G04 #@! TD*
G04 #@! TA.AperFunction,SMDPad,CuDef*
%ADD13C,0.100000*%
G04 #@! TD*
G04 #@! TA.AperFunction,ViaPad*
%ADD14C,0.800000*%
G04 #@! TD*
G04 #@! TA.AperFunction,Conductor*
%ADD15C,0.250000*%
G04 #@! TD*
G04 #@! TA.AperFunction,Conductor*
%ADD16C,0.254000*%
G04 #@! TD*
G04 #@! TA.AperFunction,Conductor*
%ADD17C,0.100000*%
G04 #@! TD*
G04 APERTURE END LIST*
D10*
X10083800Y29133800D03*
G04 #@! TA.AperFunction,SMDPad,CuDef*
G36*
G01*
X12889600Y25394800D02*
X12889600Y25694800D01*
G75*
G02*
X13039600Y25844800I150000J0D01*
G01*
X14789600Y25844800D01*
G75*
G02*
X14939600Y25694800I0J-150000D01*
G01*
X14939600Y25394800D01*
G75*
G02*
X14789600Y25244800I-150000J0D01*
G01*
X13039600Y25244800D01*
G75*
G02*
X12889600Y25394800I0J150000D01*
G01*
G37*
G04 #@! TD.AperFunction*
G04 #@! TA.AperFunction,SMDPad,CuDef*
G36*
G01*
X12889600Y24394800D02*
X12889600Y24694800D01*
G75*
G02*
X13039600Y24844800I150000J0D01*
G01*
X14789600Y24844800D01*
G75*
G02*
X14939600Y24694800I0J-150000D01*
G01*
X14939600Y24394800D01*
G75*
G02*
X14789600Y24244800I-150000J0D01*
G01*
X13039600Y24244800D01*
G75*
G02*
X12889600Y24394800I0J150000D01*
G01*
G37*
G04 #@! TD.AperFunction*
G04 #@! TA.AperFunction,SMDPad,CuDef*
G36*
G01*
X12889600Y23394800D02*
X12889600Y23694800D01*
G75*
G02*
X13039600Y23844800I150000J0D01*
G01*
X14789600Y23844800D01*
G75*
G02*
X14939600Y23694800I0J-150000D01*
G01*
X14939600Y23394800D01*
G75*
G02*
X14789600Y23244800I-150000J0D01*
G01*
X13039600Y23244800D01*
G75*
G02*
X12889600Y23394800I0J150000D01*
G01*
G37*
G04 #@! TD.AperFunction*
G04 #@! TA.AperFunction,SMDPad,CuDef*
G36*
G01*
X12889600Y22394800D02*
X12889600Y22694800D01*
G75*
G02*
X13039600Y22844800I150000J0D01*
G01*
X14789600Y22844800D01*
G75*
G02*
X14939600Y22694800I0J-150000D01*
G01*
X14939600Y22394800D01*
G75*
G02*
X14789600Y22244800I-150000J0D01*
G01*
X13039600Y22244800D01*
G75*
G02*
X12889600Y22394800I0J150000D01*
G01*
G37*
G04 #@! TD.AperFunction*
G04 #@! TA.AperFunction,SMDPad,CuDef*
G36*
G01*
X12889600Y21394800D02*
X12889600Y21694800D01*
G75*
G02*
X13039600Y21844800I150000J0D01*
G01*
X14789600Y21844800D01*
G75*
G02*
X14939600Y21694800I0J-150000D01*
G01*
X14939600Y21394800D01*
G75*
G02*
X14789600Y21244800I-150000J0D01*
G01*
X13039600Y21244800D01*
G75*
G02*
X12889600Y21394800I0J150000D01*
G01*
G37*
G04 #@! TD.AperFunction*
G04 #@! TA.AperFunction,SMDPad,CuDef*
G36*
G01*
X12889600Y20394800D02*
X12889600Y20694800D01*
G75*
G02*
X13039600Y20844800I150000J0D01*
G01*
X14789600Y20844800D01*
G75*
G02*
X14939600Y20694800I0J-150000D01*
G01*
X14939600Y20394800D01*
G75*
G02*
X14789600Y20244800I-150000J0D01*
G01*
X13039600Y20244800D01*
G75*
G02*
X12889600Y20394800I0J150000D01*
G01*
G37*
G04 #@! TD.AperFunction*
G04 #@! TA.AperFunction,SMDPad,CuDef*
G36*
G01*
X12889600Y19394800D02*
X12889600Y19694800D01*
G75*
G02*
X13039600Y19844800I150000J0D01*
G01*
X14789600Y19844800D01*
G75*
G02*
X14939600Y19694800I0J-150000D01*
G01*
X14939600Y19394800D01*
G75*
G02*
X14789600Y19244800I-150000J0D01*
G01*
X13039600Y19244800D01*
G75*
G02*
X12889600Y19394800I0J150000D01*
G01*
G37*
G04 #@! TD.AperFunction*
G04 #@! TA.AperFunction,SMDPad,CuDef*
G36*
G01*
X12889600Y18394800D02*
X12889600Y18694800D01*
G75*
G02*
X13039600Y18844800I150000J0D01*
G01*
X14789600Y18844800D01*
G75*
G02*
X14939600Y18694800I0J-150000D01*
G01*
X14939600Y18394800D01*
G75*
G02*
X14789600Y18244800I-150000J0D01*
G01*
X13039600Y18244800D01*
G75*
G02*
X12889600Y18394800I0J150000D01*
G01*
G37*
G04 #@! TD.AperFunction*
G04 #@! TA.AperFunction,SMDPad,CuDef*
G36*
G01*
X12889600Y17394800D02*
X12889600Y17694800D01*
G75*
G02*
X13039600Y17844800I150000J0D01*
G01*
X14789600Y17844800D01*
G75*
G02*
X14939600Y17694800I0J-150000D01*
G01*
X14939600Y17394800D01*
G75*
G02*
X14789600Y17244800I-150000J0D01*
G01*
X13039600Y17244800D01*
G75*
G02*
X12889600Y17394800I0J150000D01*
G01*
G37*
G04 #@! TD.AperFunction*
G04 #@! TA.AperFunction,SMDPad,CuDef*
G36*
G01*
X12889600Y16394800D02*
X12889600Y16694800D01*
G75*
G02*
X13039600Y16844800I150000J0D01*
G01*
X14789600Y16844800D01*
G75*
G02*
X14939600Y16694800I0J-150000D01*
G01*
X14939600Y16394800D01*
G75*
G02*
X14789600Y16244800I-150000J0D01*
G01*
X13039600Y16244800D01*
G75*
G02*
X12889600Y16394800I0J150000D01*
G01*
G37*
G04 #@! TD.AperFunction*
G04 #@! TA.AperFunction,SMDPad,CuDef*
G36*
G01*
X12889600Y15394800D02*
X12889600Y15694800D01*
G75*
G02*
X13039600Y15844800I150000J0D01*
G01*
X14789600Y15844800D01*
G75*
G02*
X14939600Y15694800I0J-150000D01*
G01*
X14939600Y15394800D01*
G75*
G02*
X14789600Y15244800I-150000J0D01*
G01*
X13039600Y15244800D01*
G75*
G02*
X12889600Y15394800I0J150000D01*
G01*
G37*
G04 #@! TD.AperFunction*
G04 #@! TA.AperFunction,SMDPad,CuDef*
G36*
G01*
X12889600Y14394800D02*
X12889600Y14694800D01*
G75*
G02*
X13039600Y14844800I150000J0D01*
G01*
X14789600Y14844800D01*
G75*
G02*
X14939600Y14694800I0J-150000D01*
G01*
X14939600Y14394800D01*
G75*
G02*
X14789600Y14244800I-150000J0D01*
G01*
X13039600Y14244800D01*
G75*
G02*
X12889600Y14394800I0J150000D01*
G01*
G37*
G04 #@! TD.AperFunction*
G04 #@! TA.AperFunction,SMDPad,CuDef*
G36*
G01*
X12889600Y13394800D02*
X12889600Y13694800D01*
G75*
G02*
X13039600Y13844800I150000J0D01*
G01*
X14789600Y13844800D01*
G75*
G02*
X14939600Y13694800I0J-150000D01*
G01*
X14939600Y13394800D01*
G75*
G02*
X14789600Y13244800I-150000J0D01*
G01*
X13039600Y13244800D01*
G75*
G02*
X12889600Y13394800I0J150000D01*
G01*
G37*
G04 #@! TD.AperFunction*
G04 #@! TA.AperFunction,SMDPad,CuDef*
G36*
G01*
X12889600Y12394800D02*
X12889600Y12694800D01*
G75*
G02*
X13039600Y12844800I150000J0D01*
G01*
X14789600Y12844800D01*
G75*
G02*
X14939600Y12694800I0J-150000D01*
G01*
X14939600Y12394800D01*
G75*
G02*
X14789600Y12244800I-150000J0D01*
G01*
X13039600Y12244800D01*
G75*
G02*
X12889600Y12394800I0J150000D01*
G01*
G37*
G04 #@! TD.AperFunction*
G04 #@! TA.AperFunction,SMDPad,CuDef*
G36*
G01*
X12889600Y11394800D02*
X12889600Y11694800D01*
G75*
G02*
X13039600Y11844800I150000J0D01*
G01*
X14789600Y11844800D01*
G75*
G02*
X14939600Y11694800I0J-150000D01*
G01*
X14939600Y11394800D01*
G75*
G02*
X14789600Y11244800I-150000J0D01*
G01*
X13039600Y11244800D01*
G75*
G02*
X12889600Y11394800I0J150000D01*
G01*
G37*
G04 #@! TD.AperFunction*
G04 #@! TA.AperFunction,SMDPad,CuDef*
G36*
G01*
X12889600Y10394800D02*
X12889600Y10694800D01*
G75*
G02*
X13039600Y10844800I150000J0D01*
G01*
X14789600Y10844800D01*
G75*
G02*
X14939600Y10694800I0J-150000D01*
G01*
X14939600Y10394800D01*
G75*
G02*
X14789600Y10244800I-150000J0D01*
G01*
X13039600Y10244800D01*
G75*
G02*
X12889600Y10394800I0J150000D01*
G01*
G37*
G04 #@! TD.AperFunction*
G04 #@! TA.AperFunction,SMDPad,CuDef*
G36*
G01*
X2381800Y10394800D02*
X2381800Y10694800D01*
G75*
G02*
X2531800Y10844800I150000J0D01*
G01*
X4281800Y10844800D01*
G75*
G02*
X4431800Y10694800I0J-150000D01*
G01*
X4431800Y10394800D01*
G75*
G02*
X4281800Y10244800I-150000J0D01*
G01*
X2531800Y10244800D01*
G75*
G02*
X2381800Y10394800I0J150000D01*
G01*
G37*
G04 #@! TD.AperFunction*
G04 #@! TA.AperFunction,SMDPad,CuDef*
G36*
G01*
X2381800Y11394800D02*
X2381800Y11694800D01*
G75*
G02*
X2531800Y11844800I150000J0D01*
G01*
X4281800Y11844800D01*
G75*
G02*
X4431800Y11694800I0J-150000D01*
G01*
X4431800Y11394800D01*
G75*
G02*
X4281800Y11244800I-150000J0D01*
G01*
X2531800Y11244800D01*
G75*
G02*
X2381800Y11394800I0J150000D01*
G01*
G37*
G04 #@! TD.AperFunction*
G04 #@! TA.AperFunction,SMDPad,CuDef*
G36*
G01*
X2381800Y12394800D02*
X2381800Y12694800D01*
G75*
G02*
X2531800Y12844800I150000J0D01*
G01*
X4281800Y12844800D01*
G75*
G02*
X4431800Y12694800I0J-150000D01*
G01*
X4431800Y12394800D01*
G75*
G02*
X4281800Y12244800I-150000J0D01*
G01*
X2531800Y12244800D01*
G75*
G02*
X2381800Y12394800I0J150000D01*
G01*
G37*
G04 #@! TD.AperFunction*
G04 #@! TA.AperFunction,SMDPad,CuDef*
G36*
G01*
X2381800Y13394800D02*
X2381800Y13694800D01*
G75*
G02*
X2531800Y13844800I150000J0D01*
G01*
X4281800Y13844800D01*
G75*
G02*
X4431800Y13694800I0J-150000D01*
G01*
X4431800Y13394800D01*
G75*
G02*
X4281800Y13244800I-150000J0D01*
G01*
X2531800Y13244800D01*
G75*
G02*
X2381800Y13394800I0J150000D01*
G01*
G37*
G04 #@! TD.AperFunction*
G04 #@! TA.AperFunction,SMDPad,CuDef*
G36*
G01*
X2381800Y14394800D02*
X2381800Y14694800D01*
G75*
G02*
X2531800Y14844800I150000J0D01*
G01*
X4281800Y14844800D01*
G75*
G02*
X4431800Y14694800I0J-150000D01*
G01*
X4431800Y14394800D01*
G75*
G02*
X4281800Y14244800I-150000J0D01*
G01*
X2531800Y14244800D01*
G75*
G02*
X2381800Y14394800I0J150000D01*
G01*
G37*
G04 #@! TD.AperFunction*
G04 #@! TA.AperFunction,SMDPad,CuDef*
G36*
G01*
X2381800Y15394800D02*
X2381800Y15694800D01*
G75*
G02*
X2531800Y15844800I150000J0D01*
G01*
X4281800Y15844800D01*
G75*
G02*
X4431800Y15694800I0J-150000D01*
G01*
X4431800Y15394800D01*
G75*
G02*
X4281800Y15244800I-150000J0D01*
G01*
X2531800Y15244800D01*
G75*
G02*
X2381800Y15394800I0J150000D01*
G01*
G37*
G04 #@! TD.AperFunction*
G04 #@! TA.AperFunction,SMDPad,CuDef*
G36*
G01*
X2381800Y16394800D02*
X2381800Y16694800D01*
G75*
G02*
X2531800Y16844800I150000J0D01*
G01*
X4281800Y16844800D01*
G75*
G02*
X4431800Y16694800I0J-150000D01*
G01*
X4431800Y16394800D01*
G75*
G02*
X4281800Y16244800I-150000J0D01*
G01*
X2531800Y16244800D01*
G75*
G02*
X2381800Y16394800I0J150000D01*
G01*
G37*
G04 #@! TD.AperFunction*
G04 #@! TA.AperFunction,SMDPad,CuDef*
G36*
G01*
X2381800Y17394800D02*
X2381800Y17694800D01*
G75*
G02*
X2531800Y17844800I150000J0D01*
G01*
X4281800Y17844800D01*
G75*
G02*
X4431800Y17694800I0J-150000D01*
G01*
X4431800Y17394800D01*
G75*
G02*
X4281800Y17244800I-150000J0D01*
G01*
X2531800Y17244800D01*
G75*
G02*
X2381800Y17394800I0J150000D01*
G01*
G37*
G04 #@! TD.AperFunction*
G04 #@! TA.AperFunction,SMDPad,CuDef*
G36*
G01*
X2381800Y18394800D02*
X2381800Y18694800D01*
G75*
G02*
X2531800Y18844800I150000J0D01*
G01*
X4281800Y18844800D01*
G75*
G02*
X4431800Y18694800I0J-150000D01*
G01*
X4431800Y18394800D01*
G75*
G02*
X4281800Y18244800I-150000J0D01*
G01*
X2531800Y18244800D01*
G75*
G02*
X2381800Y18394800I0J150000D01*
G01*
G37*
G04 #@! TD.AperFunction*
G04 #@! TA.AperFunction,SMDPad,CuDef*
G36*
G01*
X2381800Y19394800D02*
X2381800Y19694800D01*
G75*
G02*
X2531800Y19844800I150000J0D01*
G01*
X4281800Y19844800D01*
G75*
G02*
X4431800Y19694800I0J-150000D01*
G01*
X4431800Y19394800D01*
G75*
G02*
X4281800Y19244800I-150000J0D01*
G01*
X2531800Y19244800D01*
G75*
G02*
X2381800Y19394800I0J150000D01*
G01*
G37*
G04 #@! TD.AperFunction*
G04 #@! TA.AperFunction,SMDPad,CuDef*
G36*
G01*
X2381800Y20394800D02*
X2381800Y20694800D01*
G75*
G02*
X2531800Y20844800I150000J0D01*
G01*
X4281800Y20844800D01*
G75*
G02*
X4431800Y20694800I0J-150000D01*
G01*
X4431800Y20394800D01*
G75*
G02*
X4281800Y20244800I-150000J0D01*
G01*
X2531800Y20244800D01*
G75*
G02*
X2381800Y20394800I0J150000D01*
G01*
G37*
G04 #@! TD.AperFunction*
G04 #@! TA.AperFunction,SMDPad,CuDef*
G36*
G01*
X2381800Y21394800D02*
X2381800Y21694800D01*
G75*
G02*
X2531800Y21844800I150000J0D01*
G01*
X4281800Y21844800D01*
G75*
G02*
X4431800Y21694800I0J-150000D01*
G01*
X4431800Y21394800D01*
G75*
G02*
X4281800Y21244800I-150000J0D01*
G01*
X2531800Y21244800D01*
G75*
G02*
X2381800Y21394800I0J150000D01*
G01*
G37*
G04 #@! TD.AperFunction*
G04 #@! TA.AperFunction,SMDPad,CuDef*
G36*
G01*
X2381800Y22394800D02*
X2381800Y22694800D01*
G75*
G02*
X2531800Y22844800I150000J0D01*
G01*
X4281800Y22844800D01*
G75*
G02*
X4431800Y22694800I0J-150000D01*
G01*
X4431800Y22394800D01*
G75*
G02*
X4281800Y22244800I-150000J0D01*
G01*
X2531800Y22244800D01*
G75*
G02*
X2381800Y22394800I0J150000D01*
G01*
G37*
G04 #@! TD.AperFunction*
G04 #@! TA.AperFunction,SMDPad,CuDef*
G36*
G01*
X2381800Y23394800D02*
X2381800Y23694800D01*
G75*
G02*
X2531800Y23844800I150000J0D01*
G01*
X4281800Y23844800D01*
G75*
G02*
X4431800Y23694800I0J-150000D01*
G01*
X4431800Y23394800D01*
G75*
G02*
X4281800Y23244800I-150000J0D01*
G01*
X2531800Y23244800D01*
G75*
G02*
X2381800Y23394800I0J150000D01*
G01*
G37*
G04 #@! TD.AperFunction*
G04 #@! TA.AperFunction,SMDPad,CuDef*
G36*
G01*
X2381800Y24394800D02*
X2381800Y24694800D01*
G75*
G02*
X2531800Y24844800I150000J0D01*
G01*
X4281800Y24844800D01*
G75*
G02*
X4431800Y24694800I0J-150000D01*
G01*
X4431800Y24394800D01*
G75*
G02*
X4281800Y24244800I-150000J0D01*
G01*
X2531800Y24244800D01*
G75*
G02*
X2381800Y24394800I0J150000D01*
G01*
G37*
G04 #@! TD.AperFunction*
G04 #@! TA.AperFunction,SMDPad,CuDef*
G36*
G01*
X2381800Y25394800D02*
X2381800Y25694800D01*
G75*
G02*
X2531800Y25844800I150000J0D01*
G01*
X4281800Y25844800D01*
G75*
G02*
X4431800Y25694800I0J-150000D01*
G01*
X4431800Y25394800D01*
G75*
G02*
X4281800Y25244800I-150000J0D01*
G01*
X2531800Y25244800D01*
G75*
G02*
X2381800Y25394800I0J150000D01*
G01*
G37*
G04 #@! TD.AperFunction*
D11*
X16286800Y34548800D03*
X1046800Y1528800D03*
X16286800Y32008800D03*
X1046800Y4068800D03*
X16286800Y29468800D03*
X1046800Y6608800D03*
X16286800Y26928800D03*
X1046800Y9148800D03*
X16286800Y24388800D03*
X1046800Y11688800D03*
X16286800Y21848800D03*
X1046800Y14228800D03*
X16286800Y19308800D03*
X1046800Y16768800D03*
X16286800Y16768800D03*
X1046800Y19308800D03*
X16286800Y14228800D03*
X1046800Y21848800D03*
X16286800Y11688800D03*
X1046800Y24388800D03*
X16286800Y9148800D03*
X1046800Y26928800D03*
X16286800Y6608800D03*
X1046800Y29468800D03*
X16286800Y4068800D03*
X1046800Y32008800D03*
X16286800Y1528800D03*
D12*
X1046800Y34548800D03*
G04 #@! TA.AperFunction,SMDPad,CuDef*
D13*
G36*
X9336800Y33058198D02*
G01*
X9361334Y33058198D01*
X9410165Y33053388D01*
X9458290Y33043816D01*
X9505245Y33029572D01*
X9550578Y33010795D01*
X9593851Y32987664D01*
X9634650Y32960404D01*
X9672579Y32929276D01*
X9707276Y32894579D01*
X9738404Y32856650D01*
X9765664Y32815851D01*
X9788795Y32772578D01*
X9807572Y32727245D01*
X9821816Y32680290D01*
X9831388Y32632165D01*
X9836198Y32583334D01*
X9836198Y32558800D01*
X9836800Y32558800D01*
X9836800Y32058800D01*
X9836198Y32058800D01*
X9836198Y32034266D01*
X9831388Y31985435D01*
X9821816Y31937310D01*
X9807572Y31890355D01*
X9788795Y31845022D01*
X9765664Y31801749D01*
X9738404Y31760950D01*
X9707276Y31723021D01*
X9672579Y31688324D01*
X9634650Y31657196D01*
X9593851Y31629936D01*
X9550578Y31606805D01*
X9505245Y31588028D01*
X9458290Y31573784D01*
X9410165Y31564212D01*
X9361334Y31559402D01*
X9336800Y31559402D01*
X9336800Y31558800D01*
X8836800Y31558800D01*
X8836800Y33058800D01*
X9336800Y33058800D01*
X9336800Y33058198D01*
G37*
G04 #@! TD.AperFunction*
G04 #@! TA.AperFunction,SMDPad,CuDef*
G36*
X8536800Y31558800D02*
G01*
X8036800Y31558800D01*
X8036800Y31559402D01*
X8012266Y31559402D01*
X7963435Y31564212D01*
X7915310Y31573784D01*
X7868355Y31588028D01*
X7823022Y31606805D01*
X7779749Y31629936D01*
X7738950Y31657196D01*
X7701021Y31688324D01*
X7666324Y31723021D01*
X7635196Y31760950D01*
X7607936Y31801749D01*
X7584805Y31845022D01*
X7566028Y31890355D01*
X7551784Y31937310D01*
X7542212Y31985435D01*
X7537402Y32034266D01*
X7537402Y32058800D01*
X7536800Y32058800D01*
X7536800Y32558800D01*
X7537402Y32558800D01*
X7537402Y32583334D01*
X7542212Y32632165D01*
X7551784Y32680290D01*
X7566028Y32727245D01*
X7584805Y32772578D01*
X7607936Y32815851D01*
X7635196Y32856650D01*
X7666324Y32894579D01*
X7701021Y32929276D01*
X7738950Y32960404D01*
X7779749Y32987664D01*
X7823022Y33010795D01*
X7868355Y33029572D01*
X7915310Y33043816D01*
X7963435Y33053388D01*
X8012266Y33058198D01*
X8036800Y33058198D01*
X8036800Y33058800D01*
X8536800Y33058800D01*
X8536800Y31558800D01*
G37*
G04 #@! TD.AperFunction*
D14*
X8559800Y22529800D03*
X8559800Y9448800D03*
X6273800Y26593800D03*
X11988800Y29133800D03*
X5003800Y6908800D03*
X10718800Y26593800D03*
X6273800Y9448800D03*
X9448800Y24053800D03*
X7543800Y11988800D03*
X9448800Y11988800D03*
X7543800Y24053800D03*
X10718800Y9448800D03*
X11988800Y6908800D03*
X5003800Y29133800D03*
D15*
X9336800Y29880800D02*
X10083800Y29133800D01*
X9336800Y32308800D02*
X9336800Y29880800D01*
X10083800Y29133800D02*
X8559800Y27609800D01*
X8559800Y27609800D02*
X8559800Y22529800D01*
X8559800Y22529800D02*
X8559800Y22529800D01*
X8559800Y22529800D02*
X8559800Y9448800D01*
X8559800Y9448800D02*
X8559800Y9448800D01*
X4431800Y21544800D02*
X3406800Y21544800D01*
X6273800Y23386800D02*
X4431800Y21544800D01*
X6273800Y26593800D02*
X6273800Y23386800D01*
X6273800Y30545800D02*
X8036800Y32308800D01*
X6273800Y26593800D02*
X6273800Y30545800D01*
X13914600Y32176600D02*
X13914600Y25544800D01*
X16286800Y34548800D02*
X13914600Y32176600D01*
X3406800Y3888800D02*
X1046800Y1528800D01*
X3406800Y10544800D02*
X3406800Y3888800D01*
X15161799Y30883799D02*
X16286800Y32008800D01*
X15417800Y26132798D02*
X15161799Y26388799D01*
X15417800Y25351232D02*
X15417800Y26132798D01*
X14611368Y24544800D02*
X15417800Y25351232D01*
X15161799Y26388799D02*
X15161799Y30883799D01*
X13914600Y24544800D02*
X14611368Y24544800D01*
X2171801Y5193801D02*
X1046800Y4068800D01*
X2171801Y9688801D02*
X2171801Y5193801D01*
X2019300Y9841302D02*
X2171801Y9688801D01*
X2019300Y10854068D02*
X2019300Y9841302D01*
X2710032Y11544800D02*
X2019300Y10854068D01*
X3406800Y11544800D02*
X2710032Y11544800D01*
X12889600Y23544800D02*
X13914600Y23544800D01*
X11988800Y24445600D02*
X12889600Y23544800D01*
X11988800Y29133800D02*
X11988800Y24445600D01*
X4431800Y12544800D02*
X3406800Y12544800D01*
X5003800Y11972800D02*
X4431800Y12544800D01*
X5003800Y6908800D02*
X5003800Y11972800D01*
X13217832Y21544800D02*
X13914600Y21544800D01*
X10718800Y24043832D02*
X13217832Y21544800D01*
X10718800Y26593800D02*
X10718800Y24043832D01*
X4431800Y14544800D02*
X3406800Y14544800D01*
X6273800Y12702800D02*
X4431800Y14544800D01*
X6273800Y9448800D02*
X6273800Y12702800D01*
X12957800Y20544800D02*
X13914600Y20544800D01*
X9448800Y24053800D02*
X12957800Y20544800D01*
X7543800Y11988800D02*
X7543800Y12623800D01*
X4622800Y15544800D02*
X3406800Y15544800D01*
X7543800Y12623800D02*
X4622800Y15544800D01*
X16286800Y20973802D02*
X16286800Y21848800D01*
X14857798Y19544800D02*
X16286800Y20973802D01*
X13914600Y19544800D02*
X14857798Y19544800D01*
X1046800Y14881568D02*
X1046800Y14228800D01*
X2710032Y16544800D02*
X1046800Y14881568D01*
X3406800Y16544800D02*
X2710032Y16544800D01*
X15522800Y18544800D02*
X16286800Y19308800D01*
X13914600Y18544800D02*
X15522800Y18544800D01*
X1822800Y17544800D02*
X1046800Y16768800D01*
X3406800Y17544800D02*
X1822800Y17544800D01*
X15510800Y17544800D02*
X16286800Y16768800D01*
X13914600Y17544800D02*
X15510800Y17544800D01*
X1810800Y18544800D02*
X1046800Y19308800D01*
X3406800Y18544800D02*
X1810800Y18544800D01*
X16286800Y15103798D02*
X16286800Y14228800D01*
X14845798Y16544800D02*
X16286800Y15103798D01*
X13914600Y16544800D02*
X14845798Y16544800D01*
X1046800Y21208032D02*
X1046800Y21848800D01*
X2710032Y19544800D02*
X1046800Y21208032D01*
X3406800Y19544800D02*
X2710032Y19544800D01*
X9448800Y11988800D02*
X9448800Y12623800D01*
X12369800Y15544800D02*
X13914600Y15544800D01*
X9448800Y12623800D02*
X12369800Y15544800D01*
X4600485Y20544800D02*
X3406800Y20544800D01*
X7543800Y23488115D02*
X4600485Y20544800D01*
X7543800Y24053800D02*
X7543800Y23488115D01*
X13217832Y14544800D02*
X13914600Y14544800D01*
X10718800Y12045768D02*
X13217832Y14544800D01*
X10718800Y9448800D02*
X10718800Y12045768D01*
X12889600Y12544800D02*
X13914600Y12544800D01*
X11988800Y11644000D02*
X12889600Y12544800D01*
X11988800Y6908800D02*
X11988800Y11644000D01*
X4431800Y23544800D02*
X3406800Y23544800D01*
X5003800Y24116800D02*
X4431800Y23544800D01*
X5003800Y29133800D02*
X5003800Y24116800D01*
X15161799Y5193801D02*
X16286800Y4068800D01*
X15264610Y9791612D02*
X15161799Y9688801D01*
X15161799Y9688801D02*
X15161799Y5193801D01*
X15264610Y10891558D02*
X15264610Y9791612D01*
X14611368Y11544800D02*
X15264610Y10891558D01*
X13914600Y11544800D02*
X14611368Y11544800D01*
X2171801Y30883799D02*
X1046800Y32008800D01*
X2171801Y26388799D02*
X2171801Y30883799D01*
X1828800Y26045798D02*
X2171801Y26388799D01*
X1828800Y25426032D02*
X1828800Y26045798D01*
X2710032Y24544800D02*
X1828800Y25426032D01*
X3406800Y24544800D02*
X2710032Y24544800D01*
X13914600Y3901000D02*
X16286800Y1528800D01*
X13914600Y10544800D02*
X13914600Y3901000D01*
X3406800Y32188800D02*
X1046800Y34548800D01*
X3406800Y25544800D02*
X3406800Y32188800D01*
D16*
X8531595Y11498544D02*
X8644863Y11329026D01*
X8789026Y11184863D01*
X8958544Y11071595D01*
X9146902Y10993574D01*
X9346861Y10953800D01*
X9550739Y10953800D01*
X9750698Y10993574D01*
X9939056Y11071595D01*
X9958801Y11084788D01*
X9958800Y10152511D01*
X9914863Y10108574D01*
X9801595Y9939056D01*
X9723574Y9750698D01*
X9683800Y9550739D01*
X9683800Y9346861D01*
X9723574Y9146902D01*
X9801595Y8958544D01*
X9914863Y8789026D01*
X10059026Y8644863D01*
X10228544Y8531595D01*
X10416902Y8453574D01*
X10616861Y8413800D01*
X10820739Y8413800D01*
X11020698Y8453574D01*
X11209056Y8531595D01*
X11228800Y8544788D01*
X11228800Y7612511D01*
X11184863Y7568574D01*
X11071595Y7399056D01*
X10993574Y7210698D01*
X10953800Y7010739D01*
X10953800Y6806861D01*
X10993574Y6606902D01*
X11071595Y6418544D01*
X11184863Y6249026D01*
X11329026Y6104863D01*
X11498544Y5991595D01*
X11686902Y5913574D01*
X11886861Y5873800D01*
X12090739Y5873800D01*
X12290698Y5913574D01*
X12479056Y5991595D01*
X12648574Y6104863D01*
X12792737Y6249026D01*
X12906005Y6418544D01*
X12984026Y6606902D01*
X13023800Y6806861D01*
X13023800Y7010739D01*
X12984026Y7210698D01*
X12906005Y7399056D01*
X12792737Y7568574D01*
X12748800Y7612511D01*
X12748800Y9663445D01*
X12885855Y9621871D01*
X13039600Y9606728D01*
X13154600Y9606728D01*
X13154601Y3938332D01*
X13150924Y3901000D01*
X13165598Y3752015D01*
X13209054Y3608754D01*
X13279626Y3476724D01*
X13314832Y3433826D01*
X13374600Y3360999D01*
X13403598Y3337201D01*
X14888112Y1852686D01*
X14851800Y1670135D01*
X14851800Y1387465D01*
X14906947Y1110226D01*
X15015120Y849073D01*
X15141454Y660000D01*
X2192146Y660000D01*
X2318480Y849073D01*
X2426653Y1110226D01*
X2481800Y1387465D01*
X2481800Y1670135D01*
X2445488Y1852686D01*
X3917803Y3325001D01*
X3946801Y3348799D01*
X4016581Y3433826D01*
X4041774Y3464523D01*
X4112346Y3596553D01*
X4116047Y3608754D01*
X4155803Y3739814D01*
X4166800Y3851467D01*
X4166800Y3851477D01*
X4170476Y3888799D01*
X4166800Y3926122D01*
X4166800Y6298508D01*
X4199863Y6249026D01*
X4344026Y6104863D01*
X4513544Y5991595D01*
X4701902Y5913574D01*
X4901861Y5873800D01*
X5105739Y5873800D01*
X5305698Y5913574D01*
X5494056Y5991595D01*
X5663574Y6104863D01*
X5807737Y6249026D01*
X5921005Y6418544D01*
X5999026Y6606902D01*
X6038800Y6806861D01*
X6038800Y7010739D01*
X5999026Y7210698D01*
X5921005Y7399056D01*
X5807737Y7568574D01*
X5763800Y7612511D01*
X5763800Y8544787D01*
X5783544Y8531595D01*
X5971902Y8453574D01*
X6171861Y8413800D01*
X6375739Y8413800D01*
X6575698Y8453574D01*
X6764056Y8531595D01*
X6933574Y8644863D01*
X7077737Y8789026D01*
X7191005Y8958544D01*
X7269026Y9146902D01*
X7308800Y9346861D01*
X7308800Y9550739D01*
X7269026Y9750698D01*
X7191005Y9939056D01*
X7077737Y10108574D01*
X7033800Y10152511D01*
X7033800Y11084787D01*
X7053544Y11071595D01*
X7241902Y10993574D01*
X7441861Y10953800D01*
X7645739Y10953800D01*
X7845698Y10993574D01*
X8034056Y11071595D01*
X8203574Y11184863D01*
X8347737Y11329026D01*
X8461005Y11498544D01*
X8496300Y11583753D01*
X8531595Y11498544D01*
G04 #@! TA.AperFunction,Conductor*
D17*
G36*
X8531595Y11498544D02*
G01*
X8644863Y11329026D01*
X8789026Y11184863D01*
X8958544Y11071595D01*
X9146902Y10993574D01*
X9346861Y10953800D01*
X9550739Y10953800D01*
X9750698Y10993574D01*
X9939056Y11071595D01*
X9958801Y11084788D01*
X9958800Y10152511D01*
X9914863Y10108574D01*
X9801595Y9939056D01*
X9723574Y9750698D01*
X9683800Y9550739D01*
X9683800Y9346861D01*
X9723574Y9146902D01*
X9801595Y8958544D01*
X9914863Y8789026D01*
X10059026Y8644863D01*
X10228544Y8531595D01*
X10416902Y8453574D01*
X10616861Y8413800D01*
X10820739Y8413800D01*
X11020698Y8453574D01*
X11209056Y8531595D01*
X11228800Y8544788D01*
X11228800Y7612511D01*
X11184863Y7568574D01*
X11071595Y7399056D01*
X10993574Y7210698D01*
X10953800Y7010739D01*
X10953800Y6806861D01*
X10993574Y6606902D01*
X11071595Y6418544D01*
X11184863Y6249026D01*
X11329026Y6104863D01*
X11498544Y5991595D01*
X11686902Y5913574D01*
X11886861Y5873800D01*
X12090739Y5873800D01*
X12290698Y5913574D01*
X12479056Y5991595D01*
X12648574Y6104863D01*
X12792737Y6249026D01*
X12906005Y6418544D01*
X12984026Y6606902D01*
X13023800Y6806861D01*
X13023800Y7010739D01*
X12984026Y7210698D01*
X12906005Y7399056D01*
X12792737Y7568574D01*
X12748800Y7612511D01*
X12748800Y9663445D01*
X12885855Y9621871D01*
X13039600Y9606728D01*
X13154600Y9606728D01*
X13154601Y3938332D01*
X13150924Y3901000D01*
X13165598Y3752015D01*
X13209054Y3608754D01*
X13279626Y3476724D01*
X13314832Y3433826D01*
X13374600Y3360999D01*
X13403598Y3337201D01*
X14888112Y1852686D01*
X14851800Y1670135D01*
X14851800Y1387465D01*
X14906947Y1110226D01*
X15015120Y849073D01*
X15141454Y660000D01*
X2192146Y660000D01*
X2318480Y849073D01*
X2426653Y1110226D01*
X2481800Y1387465D01*
X2481800Y1670135D01*
X2445488Y1852686D01*
X3917803Y3325001D01*
X3946801Y3348799D01*
X4016581Y3433826D01*
X4041774Y3464523D01*
X4112346Y3596553D01*
X4116047Y3608754D01*
X4155803Y3739814D01*
X4166800Y3851467D01*
X4166800Y3851477D01*
X4170476Y3888799D01*
X4166800Y3926122D01*
X4166800Y6298508D01*
X4199863Y6249026D01*
X4344026Y6104863D01*
X4513544Y5991595D01*
X4701902Y5913574D01*
X4901861Y5873800D01*
X5105739Y5873800D01*
X5305698Y5913574D01*
X5494056Y5991595D01*
X5663574Y6104863D01*
X5807737Y6249026D01*
X5921005Y6418544D01*
X5999026Y6606902D01*
X6038800Y6806861D01*
X6038800Y7010739D01*
X5999026Y7210698D01*
X5921005Y7399056D01*
X5807737Y7568574D01*
X5763800Y7612511D01*
X5763800Y8544787D01*
X5783544Y8531595D01*
X5971902Y8453574D01*
X6171861Y8413800D01*
X6375739Y8413800D01*
X6575698Y8453574D01*
X6764056Y8531595D01*
X6933574Y8644863D01*
X7077737Y8789026D01*
X7191005Y8958544D01*
X7269026Y9146902D01*
X7308800Y9346861D01*
X7308800Y9550739D01*
X7269026Y9750698D01*
X7191005Y9939056D01*
X7077737Y10108574D01*
X7033800Y10152511D01*
X7033800Y11084787D01*
X7053544Y11071595D01*
X7241902Y10993574D01*
X7441861Y10953800D01*
X7645739Y10953800D01*
X7845698Y10993574D01*
X8034056Y11071595D01*
X8203574Y11184863D01*
X8347737Y11329026D01*
X8461005Y11498544D01*
X8496300Y11583753D01*
X8531595Y11498544D01*
G37*
G04 #@! TD.AperFunction*
D16*
X8531595Y23563544D02*
X8644863Y23394026D01*
X8789026Y23249863D01*
X8958544Y23136595D01*
X9146902Y23058574D01*
X9346861Y23018800D01*
X9408999Y23018800D01*
X12301474Y20126323D01*
X12311516Y20093218D01*
X12337396Y20044800D01*
X12311516Y19996382D01*
X12266671Y19848545D01*
X12251528Y19694800D01*
X12251528Y19394800D01*
X12266671Y19241055D01*
X12311516Y19093218D01*
X12337396Y19044800D01*
X12311516Y18996382D01*
X12266671Y18848545D01*
X12251528Y18694800D01*
X12251528Y18394800D01*
X12266671Y18241055D01*
X12311516Y18093218D01*
X12337396Y18044800D01*
X12311516Y17996382D01*
X12266671Y17848545D01*
X12251528Y17694800D01*
X12251528Y17394800D01*
X12266671Y17241055D01*
X12311516Y17093218D01*
X12337396Y17044800D01*
X12311516Y16996382D01*
X12266671Y16848545D01*
X12251528Y16694800D01*
X12251528Y16394800D01*
X12261085Y16297769D01*
X12220814Y16293803D01*
X12077553Y16250346D01*
X11945524Y16179774D01*
X11829799Y16084801D01*
X11806001Y16055803D01*
X8937798Y13187599D01*
X8908800Y13163801D01*
X8885002Y13134803D01*
X8885001Y13134802D01*
X8813826Y13048076D01*
X8771599Y12969076D01*
X8743254Y12916047D01*
X8699797Y12772786D01*
X8692228Y12695939D01*
X8644863Y12648574D01*
X8531595Y12479056D01*
X8496300Y12393847D01*
X8461005Y12479056D01*
X8347737Y12648574D01*
X8300372Y12695939D01*
X8292803Y12772786D01*
X8249346Y12916047D01*
X8178774Y13048076D01*
X8083801Y13163801D01*
X8054803Y13187599D01*
X5186604Y16055797D01*
X5162801Y16084801D01*
X5047076Y16179774D01*
X5037666Y16184804D01*
X5054729Y16241055D01*
X5069872Y16394800D01*
X5069872Y16694800D01*
X5054729Y16848545D01*
X5009884Y16996382D01*
X4984004Y17044800D01*
X5009884Y17093218D01*
X5054729Y17241055D01*
X5069872Y17394800D01*
X5069872Y17694800D01*
X5054729Y17848545D01*
X5009884Y17996382D01*
X4984004Y18044800D01*
X5009884Y18093218D01*
X5054729Y18241055D01*
X5069872Y18394800D01*
X5069872Y18694800D01*
X5054729Y18848545D01*
X5009884Y18996382D01*
X4984004Y19044800D01*
X5009884Y19093218D01*
X5054729Y19241055D01*
X5069872Y19394800D01*
X5069872Y19694800D01*
X5054729Y19848545D01*
X5033872Y19917303D01*
X5140486Y20004799D01*
X5164289Y20033803D01*
X8054803Y22924316D01*
X8083801Y22948114D01*
X8130321Y23004799D01*
X8178774Y23063838D01*
X8249346Y23195868D01*
X8259291Y23228653D01*
X8292787Y23339076D01*
X8347737Y23394026D01*
X8461005Y23563544D01*
X8496300Y23648753D01*
X8531595Y23563544D01*
G04 #@! TA.AperFunction,Conductor*
D17*
G36*
X8531595Y23563544D02*
G01*
X8644863Y23394026D01*
X8789026Y23249863D01*
X8958544Y23136595D01*
X9146902Y23058574D01*
X9346861Y23018800D01*
X9408999Y23018800D01*
X12301474Y20126323D01*
X12311516Y20093218D01*
X12337396Y20044800D01*
X12311516Y19996382D01*
X12266671Y19848545D01*
X12251528Y19694800D01*
X12251528Y19394800D01*
X12266671Y19241055D01*
X12311516Y19093218D01*
X12337396Y19044800D01*
X12311516Y18996382D01*
X12266671Y18848545D01*
X12251528Y18694800D01*
X12251528Y18394800D01*
X12266671Y18241055D01*
X12311516Y18093218D01*
X12337396Y18044800D01*
X12311516Y17996382D01*
X12266671Y17848545D01*
X12251528Y17694800D01*
X12251528Y17394800D01*
X12266671Y17241055D01*
X12311516Y17093218D01*
X12337396Y17044800D01*
X12311516Y16996382D01*
X12266671Y16848545D01*
X12251528Y16694800D01*
X12251528Y16394800D01*
X12261085Y16297769D01*
X12220814Y16293803D01*
X12077553Y16250346D01*
X11945524Y16179774D01*
X11829799Y16084801D01*
X11806001Y16055803D01*
X8937798Y13187599D01*
X8908800Y13163801D01*
X8885002Y13134803D01*
X8885001Y13134802D01*
X8813826Y13048076D01*
X8771599Y12969076D01*
X8743254Y12916047D01*
X8699797Y12772786D01*
X8692228Y12695939D01*
X8644863Y12648574D01*
X8531595Y12479056D01*
X8496300Y12393847D01*
X8461005Y12479056D01*
X8347737Y12648574D01*
X8300372Y12695939D01*
X8292803Y12772786D01*
X8249346Y12916047D01*
X8178774Y13048076D01*
X8083801Y13163801D01*
X8054803Y13187599D01*
X5186604Y16055797D01*
X5162801Y16084801D01*
X5047076Y16179774D01*
X5037666Y16184804D01*
X5054729Y16241055D01*
X5069872Y16394800D01*
X5069872Y16694800D01*
X5054729Y16848545D01*
X5009884Y16996382D01*
X4984004Y17044800D01*
X5009884Y17093218D01*
X5054729Y17241055D01*
X5069872Y17394800D01*
X5069872Y17694800D01*
X5054729Y17848545D01*
X5009884Y17996382D01*
X4984004Y18044800D01*
X5009884Y18093218D01*
X5054729Y18241055D01*
X5069872Y18394800D01*
X5069872Y18694800D01*
X5054729Y18848545D01*
X5009884Y18996382D01*
X4984004Y19044800D01*
X5009884Y19093218D01*
X5054729Y19241055D01*
X5069872Y19394800D01*
X5069872Y19694800D01*
X5054729Y19848545D01*
X5033872Y19917303D01*
X5140486Y20004799D01*
X5164289Y20033803D01*
X8054803Y22924316D01*
X8083801Y22948114D01*
X8130321Y23004799D01*
X8178774Y23063838D01*
X8249346Y23195868D01*
X8259291Y23228653D01*
X8292787Y23339076D01*
X8347737Y23394026D01*
X8461005Y23563544D01*
X8496300Y23648753D01*
X8531595Y23563544D01*
G37*
G04 #@! TD.AperFunction*
D16*
X15015120Y35228527D02*
X14906947Y34967374D01*
X14851800Y34690135D01*
X14851800Y34407465D01*
X14888112Y34224914D01*
X13403603Y32740404D01*
X13374599Y32716601D01*
X13319471Y32649426D01*
X13279626Y32600876D01*
X13270205Y32583250D01*
X13209054Y32468846D01*
X13165597Y32325585D01*
X13154600Y32213932D01*
X13154600Y32213922D01*
X13150924Y32176600D01*
X13154600Y32139277D01*
X13154601Y26482872D01*
X13039600Y26482872D01*
X12885855Y26467729D01*
X12748800Y26426155D01*
X12748800Y28430089D01*
X12792737Y28474026D01*
X12906005Y28643544D01*
X12984026Y28831902D01*
X13023800Y29031861D01*
X13023800Y29235739D01*
X12984026Y29435698D01*
X12906005Y29624056D01*
X12792737Y29793574D01*
X12648574Y29937737D01*
X12479056Y30051005D01*
X12290698Y30129026D01*
X12090739Y30168800D01*
X11886861Y30168800D01*
X11686902Y30129026D01*
X11562638Y30077554D01*
X11559612Y30108282D01*
X11523302Y30227980D01*
X11464337Y30338294D01*
X11384985Y30434985D01*
X11288294Y30514337D01*
X11177980Y30573302D01*
X11058282Y30609612D01*
X10933800Y30621872D01*
X10369550Y30618800D01*
X10210800Y30460050D01*
X10210800Y29260800D01*
X10230800Y29260800D01*
X10230800Y29006800D01*
X10210800Y29006800D01*
X10210800Y27807550D01*
X10369550Y27648800D01*
X10933800Y27645728D01*
X11058282Y27657988D01*
X11177980Y27694298D01*
X11228800Y27721462D01*
X11228800Y27497812D01*
X11209056Y27511005D01*
X11020698Y27589026D01*
X10820739Y27628800D01*
X10616861Y27628800D01*
X10416902Y27589026D01*
X10228544Y27511005D01*
X10059026Y27397737D01*
X9914863Y27253574D01*
X9801595Y27084056D01*
X9723574Y26895698D01*
X9683800Y26695739D01*
X9683800Y26491861D01*
X9723574Y26291902D01*
X9801595Y26103544D01*
X9914863Y25934026D01*
X9958800Y25890089D01*
X9958801Y24957812D01*
X9939056Y24971005D01*
X9750698Y25049026D01*
X9550739Y25088800D01*
X9346861Y25088800D01*
X9146902Y25049026D01*
X8958544Y24971005D01*
X8789026Y24857737D01*
X8644863Y24713574D01*
X8531595Y24544056D01*
X8496300Y24458847D01*
X8461005Y24544056D01*
X8347737Y24713574D01*
X8203574Y24857737D01*
X8034056Y24971005D01*
X7845698Y25049026D01*
X7645739Y25088800D01*
X7441861Y25088800D01*
X7241902Y25049026D01*
X7053544Y24971005D01*
X7033800Y24957813D01*
X7033800Y25890089D01*
X7077737Y25934026D01*
X7191005Y26103544D01*
X7269026Y26291902D01*
X7308800Y26491861D01*
X7308800Y26695739D01*
X7269026Y26895698D01*
X7191005Y27084056D01*
X7077737Y27253574D01*
X7033800Y27297511D01*
X7033800Y28283800D01*
X8595728Y28283800D01*
X8607988Y28159318D01*
X8644298Y28039620D01*
X8703263Y27929306D01*
X8782615Y27832615D01*
X8879306Y27753263D01*
X8989620Y27694298D01*
X9109318Y27657988D01*
X9233800Y27645728D01*
X9798050Y27648800D01*
X9956800Y27807550D01*
X9956800Y29006800D01*
X8757550Y29006800D01*
X8598800Y28848050D01*
X8595728Y28283800D01*
X7033800Y28283800D01*
X7033800Y29983800D01*
X8595728Y29983800D01*
X8598800Y29419550D01*
X8757550Y29260800D01*
X9956800Y29260800D01*
X9956800Y30460050D01*
X9798050Y30618800D01*
X9233800Y30621872D01*
X9109318Y30609612D01*
X8989620Y30573302D01*
X8879306Y30514337D01*
X8782615Y30434985D01*
X8703263Y30338294D01*
X8644298Y30227980D01*
X8607988Y30108282D01*
X8595728Y29983800D01*
X7033800Y29983800D01*
X7033800Y30230999D01*
X7759614Y30956812D01*
X7767177Y30954518D01*
X7863310Y30935396D01*
X7987791Y30923136D01*
X8012350Y30923136D01*
X8036800Y30920728D01*
X8536800Y30920728D01*
X8661282Y30932988D01*
X8780980Y30969298D01*
X8891294Y31028263D01*
X8987985Y31107615D01*
X9067337Y31204306D01*
X9126302Y31314620D01*
X9162612Y31434318D01*
X9174872Y31558800D01*
X9174872Y33058800D01*
X9162612Y33183282D01*
X9126302Y33302980D01*
X9067337Y33413294D01*
X8987985Y33509985D01*
X8891294Y33589337D01*
X8780980Y33648302D01*
X8661282Y33684612D01*
X8536800Y33696872D01*
X8036800Y33696872D01*
X8012350Y33694464D01*
X7987791Y33694464D01*
X7863310Y33682204D01*
X7767177Y33663082D01*
X7647481Y33626773D01*
X7556925Y33589264D01*
X7446608Y33530298D01*
X7365109Y33475842D01*
X7268418Y33396490D01*
X7199110Y33327182D01*
X7119758Y33230491D01*
X7065302Y33148992D01*
X7006336Y33038675D01*
X6968827Y32948119D01*
X6932518Y32828423D01*
X6913396Y32732290D01*
X6901136Y32607809D01*
X6901136Y32583250D01*
X6898728Y32558800D01*
X6898728Y32245530D01*
X5762798Y31109599D01*
X5733800Y31085801D01*
X5710002Y31056803D01*
X5710001Y31056802D01*
X5638826Y30970076D01*
X5568254Y30838046D01*
X5524798Y30694785D01*
X5510124Y30545800D01*
X5513801Y30508468D01*
X5513801Y30037812D01*
X5494056Y30051005D01*
X5305698Y30129026D01*
X5105739Y30168800D01*
X4901861Y30168800D01*
X4701902Y30129026D01*
X4513544Y30051005D01*
X4344026Y29937737D01*
X4199863Y29793574D01*
X4166800Y29744092D01*
X4166800Y32151478D01*
X4170476Y32188801D01*
X4166800Y32226123D01*
X4166800Y32226133D01*
X4155803Y32337786D01*
X4112346Y32481047D01*
X4048296Y32600875D01*
X4041774Y32613077D01*
X3970599Y32699803D01*
X3946801Y32728801D01*
X3917803Y32752599D01*
X2484872Y34185529D01*
X2484872Y35348800D01*
X2476540Y35433400D01*
X15152011Y35433400D01*
X15015120Y35228527D01*
G04 #@! TA.AperFunction,Conductor*
D17*
G36*
X15015120Y35228527D02*
G01*
X14906947Y34967374D01*
X14851800Y34690135D01*
X14851800Y34407465D01*
X14888112Y34224914D01*
X13403603Y32740404D01*
X13374599Y32716601D01*
X13319471Y32649426D01*
X13279626Y32600876D01*
X13270205Y32583250D01*
X13209054Y32468846D01*
X13165597Y32325585D01*
X13154600Y32213932D01*
X13154600Y32213922D01*
X13150924Y32176600D01*
X13154600Y32139277D01*
X13154601Y26482872D01*
X13039600Y26482872D01*
X12885855Y26467729D01*
X12748800Y26426155D01*
X12748800Y28430089D01*
X12792737Y28474026D01*
X12906005Y28643544D01*
X12984026Y28831902D01*
X13023800Y29031861D01*
X13023800Y29235739D01*
X12984026Y29435698D01*
X12906005Y29624056D01*
X12792737Y29793574D01*
X12648574Y29937737D01*
X12479056Y30051005D01*
X12290698Y30129026D01*
X12090739Y30168800D01*
X11886861Y30168800D01*
X11686902Y30129026D01*
X11562638Y30077554D01*
X11559612Y30108282D01*
X11523302Y30227980D01*
X11464337Y30338294D01*
X11384985Y30434985D01*
X11288294Y30514337D01*
X11177980Y30573302D01*
X11058282Y30609612D01*
X10933800Y30621872D01*
X10369550Y30618800D01*
X10210800Y30460050D01*
X10210800Y29260800D01*
X10230800Y29260800D01*
X10230800Y29006800D01*
X10210800Y29006800D01*
X10210800Y27807550D01*
X10369550Y27648800D01*
X10933800Y27645728D01*
X11058282Y27657988D01*
X11177980Y27694298D01*
X11228800Y27721462D01*
X11228800Y27497812D01*
X11209056Y27511005D01*
X11020698Y27589026D01*
X10820739Y27628800D01*
X10616861Y27628800D01*
X10416902Y27589026D01*
X10228544Y27511005D01*
X10059026Y27397737D01*
X9914863Y27253574D01*
X9801595Y27084056D01*
X9723574Y26895698D01*
X9683800Y26695739D01*
X9683800Y26491861D01*
X9723574Y26291902D01*
X9801595Y26103544D01*
X9914863Y25934026D01*
X9958800Y25890089D01*
X9958801Y24957812D01*
X9939056Y24971005D01*
X9750698Y25049026D01*
X9550739Y25088800D01*
X9346861Y25088800D01*
X9146902Y25049026D01*
X8958544Y24971005D01*
X8789026Y24857737D01*
X8644863Y24713574D01*
X8531595Y24544056D01*
X8496300Y24458847D01*
X8461005Y24544056D01*
X8347737Y24713574D01*
X8203574Y24857737D01*
X8034056Y24971005D01*
X7845698Y25049026D01*
X7645739Y25088800D01*
X7441861Y25088800D01*
X7241902Y25049026D01*
X7053544Y24971005D01*
X7033800Y24957813D01*
X7033800Y25890089D01*
X7077737Y25934026D01*
X7191005Y26103544D01*
X7269026Y26291902D01*
X7308800Y26491861D01*
X7308800Y26695739D01*
X7269026Y26895698D01*
X7191005Y27084056D01*
X7077737Y27253574D01*
X7033800Y27297511D01*
X7033800Y28283800D01*
X8595728Y28283800D01*
X8607988Y28159318D01*
X8644298Y28039620D01*
X8703263Y27929306D01*
X8782615Y27832615D01*
X8879306Y27753263D01*
X8989620Y27694298D01*
X9109318Y27657988D01*
X9233800Y27645728D01*
X9798050Y27648800D01*
X9956800Y27807550D01*
X9956800Y29006800D01*
X8757550Y29006800D01*
X8598800Y28848050D01*
X8595728Y28283800D01*
X7033800Y28283800D01*
X7033800Y29983800D01*
X8595728Y29983800D01*
X8598800Y29419550D01*
X8757550Y29260800D01*
X9956800Y29260800D01*
X9956800Y30460050D01*
X9798050Y30618800D01*
X9233800Y30621872D01*
X9109318Y30609612D01*
X8989620Y30573302D01*
X8879306Y30514337D01*
X8782615Y30434985D01*
X8703263Y30338294D01*
X8644298Y30227980D01*
X8607988Y30108282D01*
X8595728Y29983800D01*
X7033800Y29983800D01*
X7033800Y30230999D01*
X7759614Y30956812D01*
X7767177Y30954518D01*
X7863310Y30935396D01*
X7987791Y30923136D01*
X8012350Y30923136D01*
X8036800Y30920728D01*
X8536800Y30920728D01*
X8661282Y30932988D01*
X8780980Y30969298D01*
X8891294Y31028263D01*
X8987985Y31107615D01*
X9067337Y31204306D01*
X9126302Y31314620D01*
X9162612Y31434318D01*
X9174872Y31558800D01*
X9174872Y33058800D01*
X9162612Y33183282D01*
X9126302Y33302980D01*
X9067337Y33413294D01*
X8987985Y33509985D01*
X8891294Y33589337D01*
X8780980Y33648302D01*
X8661282Y33684612D01*
X8536800Y33696872D01*
X8036800Y33696872D01*
X8012350Y33694464D01*
X7987791Y33694464D01*
X7863310Y33682204D01*
X7767177Y33663082D01*
X7647481Y33626773D01*
X7556925Y33589264D01*
X7446608Y33530298D01*
X7365109Y33475842D01*
X7268418Y33396490D01*
X7199110Y33327182D01*
X7119758Y33230491D01*
X7065302Y33148992D01*
X7006336Y33038675D01*
X6968827Y32948119D01*
X6932518Y32828423D01*
X6913396Y32732290D01*
X6901136Y32607809D01*
X6901136Y32583250D01*
X6898728Y32558800D01*
X6898728Y32245530D01*
X5762798Y31109599D01*
X5733800Y31085801D01*
X5710002Y31056803D01*
X5710001Y31056802D01*
X5638826Y30970076D01*
X5568254Y30838046D01*
X5524798Y30694785D01*
X5510124Y30545800D01*
X5513801Y30508468D01*
X5513801Y30037812D01*
X5494056Y30051005D01*
X5305698Y30129026D01*
X5105739Y30168800D01*
X4901861Y30168800D01*
X4701902Y30129026D01*
X4513544Y30051005D01*
X4344026Y29937737D01*
X4199863Y29793574D01*
X4166800Y29744092D01*
X4166800Y32151478D01*
X4170476Y32188801D01*
X4166800Y32226123D01*
X4166800Y32226133D01*
X4155803Y32337786D01*
X4112346Y32481047D01*
X4048296Y32600875D01*
X4041774Y32613077D01*
X3970599Y32699803D01*
X3946801Y32728801D01*
X3917803Y32752599D01*
X2484872Y34185529D01*
X2484872Y35348800D01*
X2476540Y35433400D01*
X15152011Y35433400D01*
X15015120Y35228527D01*
G37*
G04 #@! TD.AperFunction*
M02*
