G04 #@! TF.GenerationSoftware,KiCad,Pcbnew,(5.1.8)-1*
G04 #@! TF.CreationDate,2023-02-07T01:20:16+09:00*
G04 #@! TF.ProjectId,DIP28SSOP32_1mm,44495032-3853-4534-9f50-33325f316d6d,rev?*
G04 #@! TF.SameCoordinates,PXa9a2ce8PY790b418*
G04 #@! TF.FileFunction,Paste,Top*
G04 #@! TF.FilePolarity,Positive*
%FSLAX46Y46*%
G04 Gerber Fmt 4.6, Leading zero omitted, Abs format (unit mm)*
G04 Created by KiCad (PCBNEW (5.1.8)-1) date 2023-02-07 01:20:16*
%MOMM*%
%LPD*%
G01*
G04 APERTURE LIST*
G04 APERTURE END LIST*
G36*
G01*
X12889600Y25394800D02*
X12889600Y25694800D01*
G75*
G02*
X13039600Y25844800I150000J0D01*
G01*
X14789600Y25844800D01*
G75*
G02*
X14939600Y25694800I0J-150000D01*
G01*
X14939600Y25394800D01*
G75*
G02*
X14789600Y25244800I-150000J0D01*
G01*
X13039600Y25244800D01*
G75*
G02*
X12889600Y25394800I0J150000D01*
G01*
G37*
G36*
G01*
X12889600Y24394800D02*
X12889600Y24694800D01*
G75*
G02*
X13039600Y24844800I150000J0D01*
G01*
X14789600Y24844800D01*
G75*
G02*
X14939600Y24694800I0J-150000D01*
G01*
X14939600Y24394800D01*
G75*
G02*
X14789600Y24244800I-150000J0D01*
G01*
X13039600Y24244800D01*
G75*
G02*
X12889600Y24394800I0J150000D01*
G01*
G37*
G36*
G01*
X12889600Y23394800D02*
X12889600Y23694800D01*
G75*
G02*
X13039600Y23844800I150000J0D01*
G01*
X14789600Y23844800D01*
G75*
G02*
X14939600Y23694800I0J-150000D01*
G01*
X14939600Y23394800D01*
G75*
G02*
X14789600Y23244800I-150000J0D01*
G01*
X13039600Y23244800D01*
G75*
G02*
X12889600Y23394800I0J150000D01*
G01*
G37*
G36*
G01*
X12889600Y22394800D02*
X12889600Y22694800D01*
G75*
G02*
X13039600Y22844800I150000J0D01*
G01*
X14789600Y22844800D01*
G75*
G02*
X14939600Y22694800I0J-150000D01*
G01*
X14939600Y22394800D01*
G75*
G02*
X14789600Y22244800I-150000J0D01*
G01*
X13039600Y22244800D01*
G75*
G02*
X12889600Y22394800I0J150000D01*
G01*
G37*
G36*
G01*
X12889600Y21394800D02*
X12889600Y21694800D01*
G75*
G02*
X13039600Y21844800I150000J0D01*
G01*
X14789600Y21844800D01*
G75*
G02*
X14939600Y21694800I0J-150000D01*
G01*
X14939600Y21394800D01*
G75*
G02*
X14789600Y21244800I-150000J0D01*
G01*
X13039600Y21244800D01*
G75*
G02*
X12889600Y21394800I0J150000D01*
G01*
G37*
G36*
G01*
X12889600Y20394800D02*
X12889600Y20694800D01*
G75*
G02*
X13039600Y20844800I150000J0D01*
G01*
X14789600Y20844800D01*
G75*
G02*
X14939600Y20694800I0J-150000D01*
G01*
X14939600Y20394800D01*
G75*
G02*
X14789600Y20244800I-150000J0D01*
G01*
X13039600Y20244800D01*
G75*
G02*
X12889600Y20394800I0J150000D01*
G01*
G37*
G36*
G01*
X12889600Y19394800D02*
X12889600Y19694800D01*
G75*
G02*
X13039600Y19844800I150000J0D01*
G01*
X14789600Y19844800D01*
G75*
G02*
X14939600Y19694800I0J-150000D01*
G01*
X14939600Y19394800D01*
G75*
G02*
X14789600Y19244800I-150000J0D01*
G01*
X13039600Y19244800D01*
G75*
G02*
X12889600Y19394800I0J150000D01*
G01*
G37*
G36*
G01*
X12889600Y18394800D02*
X12889600Y18694800D01*
G75*
G02*
X13039600Y18844800I150000J0D01*
G01*
X14789600Y18844800D01*
G75*
G02*
X14939600Y18694800I0J-150000D01*
G01*
X14939600Y18394800D01*
G75*
G02*
X14789600Y18244800I-150000J0D01*
G01*
X13039600Y18244800D01*
G75*
G02*
X12889600Y18394800I0J150000D01*
G01*
G37*
G36*
G01*
X12889600Y17394800D02*
X12889600Y17694800D01*
G75*
G02*
X13039600Y17844800I150000J0D01*
G01*
X14789600Y17844800D01*
G75*
G02*
X14939600Y17694800I0J-150000D01*
G01*
X14939600Y17394800D01*
G75*
G02*
X14789600Y17244800I-150000J0D01*
G01*
X13039600Y17244800D01*
G75*
G02*
X12889600Y17394800I0J150000D01*
G01*
G37*
G36*
G01*
X12889600Y16394800D02*
X12889600Y16694800D01*
G75*
G02*
X13039600Y16844800I150000J0D01*
G01*
X14789600Y16844800D01*
G75*
G02*
X14939600Y16694800I0J-150000D01*
G01*
X14939600Y16394800D01*
G75*
G02*
X14789600Y16244800I-150000J0D01*
G01*
X13039600Y16244800D01*
G75*
G02*
X12889600Y16394800I0J150000D01*
G01*
G37*
G36*
G01*
X12889600Y15394800D02*
X12889600Y15694800D01*
G75*
G02*
X13039600Y15844800I150000J0D01*
G01*
X14789600Y15844800D01*
G75*
G02*
X14939600Y15694800I0J-150000D01*
G01*
X14939600Y15394800D01*
G75*
G02*
X14789600Y15244800I-150000J0D01*
G01*
X13039600Y15244800D01*
G75*
G02*
X12889600Y15394800I0J150000D01*
G01*
G37*
G36*
G01*
X12889600Y14394800D02*
X12889600Y14694800D01*
G75*
G02*
X13039600Y14844800I150000J0D01*
G01*
X14789600Y14844800D01*
G75*
G02*
X14939600Y14694800I0J-150000D01*
G01*
X14939600Y14394800D01*
G75*
G02*
X14789600Y14244800I-150000J0D01*
G01*
X13039600Y14244800D01*
G75*
G02*
X12889600Y14394800I0J150000D01*
G01*
G37*
G36*
G01*
X12889600Y13394800D02*
X12889600Y13694800D01*
G75*
G02*
X13039600Y13844800I150000J0D01*
G01*
X14789600Y13844800D01*
G75*
G02*
X14939600Y13694800I0J-150000D01*
G01*
X14939600Y13394800D01*
G75*
G02*
X14789600Y13244800I-150000J0D01*
G01*
X13039600Y13244800D01*
G75*
G02*
X12889600Y13394800I0J150000D01*
G01*
G37*
G36*
G01*
X12889600Y12394800D02*
X12889600Y12694800D01*
G75*
G02*
X13039600Y12844800I150000J0D01*
G01*
X14789600Y12844800D01*
G75*
G02*
X14939600Y12694800I0J-150000D01*
G01*
X14939600Y12394800D01*
G75*
G02*
X14789600Y12244800I-150000J0D01*
G01*
X13039600Y12244800D01*
G75*
G02*
X12889600Y12394800I0J150000D01*
G01*
G37*
G36*
G01*
X12889600Y11394800D02*
X12889600Y11694800D01*
G75*
G02*
X13039600Y11844800I150000J0D01*
G01*
X14789600Y11844800D01*
G75*
G02*
X14939600Y11694800I0J-150000D01*
G01*
X14939600Y11394800D01*
G75*
G02*
X14789600Y11244800I-150000J0D01*
G01*
X13039600Y11244800D01*
G75*
G02*
X12889600Y11394800I0J150000D01*
G01*
G37*
G36*
G01*
X12889600Y10394800D02*
X12889600Y10694800D01*
G75*
G02*
X13039600Y10844800I150000J0D01*
G01*
X14789600Y10844800D01*
G75*
G02*
X14939600Y10694800I0J-150000D01*
G01*
X14939600Y10394800D01*
G75*
G02*
X14789600Y10244800I-150000J0D01*
G01*
X13039600Y10244800D01*
G75*
G02*
X12889600Y10394800I0J150000D01*
G01*
G37*
G36*
G01*
X2381800Y10394800D02*
X2381800Y10694800D01*
G75*
G02*
X2531800Y10844800I150000J0D01*
G01*
X4281800Y10844800D01*
G75*
G02*
X4431800Y10694800I0J-150000D01*
G01*
X4431800Y10394800D01*
G75*
G02*
X4281800Y10244800I-150000J0D01*
G01*
X2531800Y10244800D01*
G75*
G02*
X2381800Y10394800I0J150000D01*
G01*
G37*
G36*
G01*
X2381800Y11394800D02*
X2381800Y11694800D01*
G75*
G02*
X2531800Y11844800I150000J0D01*
G01*
X4281800Y11844800D01*
G75*
G02*
X4431800Y11694800I0J-150000D01*
G01*
X4431800Y11394800D01*
G75*
G02*
X4281800Y11244800I-150000J0D01*
G01*
X2531800Y11244800D01*
G75*
G02*
X2381800Y11394800I0J150000D01*
G01*
G37*
G36*
G01*
X2381800Y12394800D02*
X2381800Y12694800D01*
G75*
G02*
X2531800Y12844800I150000J0D01*
G01*
X4281800Y12844800D01*
G75*
G02*
X4431800Y12694800I0J-150000D01*
G01*
X4431800Y12394800D01*
G75*
G02*
X4281800Y12244800I-150000J0D01*
G01*
X2531800Y12244800D01*
G75*
G02*
X2381800Y12394800I0J150000D01*
G01*
G37*
G36*
G01*
X2381800Y13394800D02*
X2381800Y13694800D01*
G75*
G02*
X2531800Y13844800I150000J0D01*
G01*
X4281800Y13844800D01*
G75*
G02*
X4431800Y13694800I0J-150000D01*
G01*
X4431800Y13394800D01*
G75*
G02*
X4281800Y13244800I-150000J0D01*
G01*
X2531800Y13244800D01*
G75*
G02*
X2381800Y13394800I0J150000D01*
G01*
G37*
G36*
G01*
X2381800Y14394800D02*
X2381800Y14694800D01*
G75*
G02*
X2531800Y14844800I150000J0D01*
G01*
X4281800Y14844800D01*
G75*
G02*
X4431800Y14694800I0J-150000D01*
G01*
X4431800Y14394800D01*
G75*
G02*
X4281800Y14244800I-150000J0D01*
G01*
X2531800Y14244800D01*
G75*
G02*
X2381800Y14394800I0J150000D01*
G01*
G37*
G36*
G01*
X2381800Y15394800D02*
X2381800Y15694800D01*
G75*
G02*
X2531800Y15844800I150000J0D01*
G01*
X4281800Y15844800D01*
G75*
G02*
X4431800Y15694800I0J-150000D01*
G01*
X4431800Y15394800D01*
G75*
G02*
X4281800Y15244800I-150000J0D01*
G01*
X2531800Y15244800D01*
G75*
G02*
X2381800Y15394800I0J150000D01*
G01*
G37*
G36*
G01*
X2381800Y16394800D02*
X2381800Y16694800D01*
G75*
G02*
X2531800Y16844800I150000J0D01*
G01*
X4281800Y16844800D01*
G75*
G02*
X4431800Y16694800I0J-150000D01*
G01*
X4431800Y16394800D01*
G75*
G02*
X4281800Y16244800I-150000J0D01*
G01*
X2531800Y16244800D01*
G75*
G02*
X2381800Y16394800I0J150000D01*
G01*
G37*
G36*
G01*
X2381800Y17394800D02*
X2381800Y17694800D01*
G75*
G02*
X2531800Y17844800I150000J0D01*
G01*
X4281800Y17844800D01*
G75*
G02*
X4431800Y17694800I0J-150000D01*
G01*
X4431800Y17394800D01*
G75*
G02*
X4281800Y17244800I-150000J0D01*
G01*
X2531800Y17244800D01*
G75*
G02*
X2381800Y17394800I0J150000D01*
G01*
G37*
G36*
G01*
X2381800Y18394800D02*
X2381800Y18694800D01*
G75*
G02*
X2531800Y18844800I150000J0D01*
G01*
X4281800Y18844800D01*
G75*
G02*
X4431800Y18694800I0J-150000D01*
G01*
X4431800Y18394800D01*
G75*
G02*
X4281800Y18244800I-150000J0D01*
G01*
X2531800Y18244800D01*
G75*
G02*
X2381800Y18394800I0J150000D01*
G01*
G37*
G36*
G01*
X2381800Y19394800D02*
X2381800Y19694800D01*
G75*
G02*
X2531800Y19844800I150000J0D01*
G01*
X4281800Y19844800D01*
G75*
G02*
X4431800Y19694800I0J-150000D01*
G01*
X4431800Y19394800D01*
G75*
G02*
X4281800Y19244800I-150000J0D01*
G01*
X2531800Y19244800D01*
G75*
G02*
X2381800Y19394800I0J150000D01*
G01*
G37*
G36*
G01*
X2381800Y20394800D02*
X2381800Y20694800D01*
G75*
G02*
X2531800Y20844800I150000J0D01*
G01*
X4281800Y20844800D01*
G75*
G02*
X4431800Y20694800I0J-150000D01*
G01*
X4431800Y20394800D01*
G75*
G02*
X4281800Y20244800I-150000J0D01*
G01*
X2531800Y20244800D01*
G75*
G02*
X2381800Y20394800I0J150000D01*
G01*
G37*
G36*
G01*
X2381800Y21394800D02*
X2381800Y21694800D01*
G75*
G02*
X2531800Y21844800I150000J0D01*
G01*
X4281800Y21844800D01*
G75*
G02*
X4431800Y21694800I0J-150000D01*
G01*
X4431800Y21394800D01*
G75*
G02*
X4281800Y21244800I-150000J0D01*
G01*
X2531800Y21244800D01*
G75*
G02*
X2381800Y21394800I0J150000D01*
G01*
G37*
G36*
G01*
X2381800Y22394800D02*
X2381800Y22694800D01*
G75*
G02*
X2531800Y22844800I150000J0D01*
G01*
X4281800Y22844800D01*
G75*
G02*
X4431800Y22694800I0J-150000D01*
G01*
X4431800Y22394800D01*
G75*
G02*
X4281800Y22244800I-150000J0D01*
G01*
X2531800Y22244800D01*
G75*
G02*
X2381800Y22394800I0J150000D01*
G01*
G37*
G36*
G01*
X2381800Y23394800D02*
X2381800Y23694800D01*
G75*
G02*
X2531800Y23844800I150000J0D01*
G01*
X4281800Y23844800D01*
G75*
G02*
X4431800Y23694800I0J-150000D01*
G01*
X4431800Y23394800D01*
G75*
G02*
X4281800Y23244800I-150000J0D01*
G01*
X2531800Y23244800D01*
G75*
G02*
X2381800Y23394800I0J150000D01*
G01*
G37*
G36*
G01*
X2381800Y24394800D02*
X2381800Y24694800D01*
G75*
G02*
X2531800Y24844800I150000J0D01*
G01*
X4281800Y24844800D01*
G75*
G02*
X4431800Y24694800I0J-150000D01*
G01*
X4431800Y24394800D01*
G75*
G02*
X4281800Y24244800I-150000J0D01*
G01*
X2531800Y24244800D01*
G75*
G02*
X2381800Y24394800I0J150000D01*
G01*
G37*
G36*
G01*
X2381800Y25394800D02*
X2381800Y25694800D01*
G75*
G02*
X2531800Y25844800I150000J0D01*
G01*
X4281800Y25844800D01*
G75*
G02*
X4431800Y25694800I0J-150000D01*
G01*
X4431800Y25394800D01*
G75*
G02*
X4281800Y25244800I-150000J0D01*
G01*
X2531800Y25244800D01*
G75*
G02*
X2381800Y25394800I0J150000D01*
G01*
G37*
M02*
