M48
; DRILL file {KiCad (5.1.8)-1} date 01/27/23 00:05:32
; FORMAT={3:3/ absolute / metric / suppress leading zeros}
; #@! TF.CreationDate,2023-01-27T00:05:32+09:00
; #@! TF.GenerationSoftware,Kicad,Pcbnew,(5.1.8)-1
FMAT,2
METRIC,TZ
T1C0.400
T2C0.800
T3C1.000
%
G90
G05
T1
X5004Y29134
X5004Y6909
X6274Y26594
X6274Y9449
X7544Y24054
X7544Y11989
X8560Y22530
X8560Y9449
X9449Y24054
X9449Y11989
X10719Y26594
X10719Y9449
X11989Y29134
X11989Y6909
T2
X1047Y34549
X1047Y32009
X1047Y29469
X1047Y26929
X1047Y24389
X1047Y21849
X1047Y19309
X1047Y16769
X1047Y14229
X1047Y11689
X1047Y9149
X1047Y6609
X1047Y4069
X1047Y1529
X16287Y34549
X16287Y32009
X16287Y29469
X16287Y26929
X16287Y24389
X16287Y21849
X16287Y19309
X16287Y16769
X16287Y14229
X16287Y11689
X16287Y9149
X16287Y6609
X16287Y4069
X16287Y1529
T3
X10084Y29134
T0
M30
